# xmcd CD database file generated by Grip 2.95
# 
# Track frame offsets:
#       150
#       25650
#       48190
#       64163
#       79648
#       101110
#       120570
#       138638
#       150285
#       188810
#       208993
# 
# Disc length: 3207 seconds
# 
# Revision: 3
# Processed by: cddbd v1.4PL0 Copyright (c) Steve Scherf et al.
# Submitted via: Grip 2.95
# 
DISCID=8f0c850b
DTITLE=UKADAN - Best of UKADAN Live
DYEAR=1900
DGENRE=
TTITLE0=Nagisa no Board Walk
TTITLE1=All of me
TTITLE2=Midnight Drinker
TTITLE3=Uso wa Tsumi
TTITLE4=The Enka
TTITLE5=Atashi no Kareshi
TTITLE6=Doroboh
TTITLE7=Iyannatta
TTITLE8=Pachinko Kumikyoku
TTITLE9=Stealin'
TTITLE10=Chicago Bound
EXTD=
EXTT0=
EXTT1=
EXTT2=
EXTT3=
EXTT4=
EXTT5=
EXTT6=
EXTT7=
EXTT8=
EXTT9=
EXTT10=
PLAYORDER=
